
#
# '/mnt/sdcard/Download/cds-data/audio/Track_05 (240s 40kbps).mp3'
#
General
Count                                    : 284
Count of stream of this kind             : 1
Kind of stream                           : General
Kind of stream                           : General
Stream identifier                        : 0
Count of audio streams                   : 1
Audio_Format_List                        : MPEG Audio
Audio_Format_WithHint_List               : MPEG Audio
Audio codecs                             : MPEG-2 Audio layer 3
Complete name                            : /mnt/sdcard/Download/cds-data/audio/Track_05 (240s 40kbps).mp3
Folder name                              : /mnt/sdcard/Download/cds-data/audio
File name                                : Track_05 (240s 40kbps)
File extension                           : mp3
Format                                   : MPEG Audio
Format                                   : MPEG Audio
Format/Extensions usually used           : m1a mpa1 mp1 m2a mpa2 mp2 mp3
Commercial name                          : MPEG Audio
Internet media type                      : audio/mpeg
Codec                                    : MPEG Audio
Codec                                    : MPEG Audio
Codec/Extensions usually used            : m1a mpa1 mp1 m2a mpa2 mp2 mp3
File size                                : 1200728
File size                                : 1.15 MiB
File size                                : 1 MiB
File size                                : 1.1 MiB
File size                                : 1.15 MiB
File size                                : 1.145 MiB
Duration                                 : 240084
Duration                                 : 4mn 0s
Duration                                 : 4mn 0s 84ms
Duration                                 : 4mn 0s
Duration                                 : 00:04:00.084
Overall bit rate mode                    : CBR
Overall bit rate mode                    : Constant
Overall bit rate                         : 40000
Overall bit rate                         : 40.0 Kbps
Stream size                              : 128
Stream size                              : 128 Bytes (0%)
Stream size                              : 128 Bytes
Stream size                              : 128 Bytes
Stream size                              : 128 Bytes
Stream size                              : 128.0 Bytes
Stream size                              : 128 Bytes (0%)
Proportion of this stream                : 0.00011
Title                                    : Track_05
Album                                    : Album_1
Track name                               : Track_05
Performer                                : Andrew
File last modification date              : UTC 2014-11-26 06:29:50
File last modification date (local)      : 2014-11-26 15:29:50
Writing library                          : LAME3.99r
Writing library                          : LAME3.99r

Audio
Count                                    : 222
Count of stream of this kind             : 1
Kind of stream                           : Audio
Kind of stream                           : Audio
Stream identifier                        : 0
Format                                   : MPEG Audio
Commercial name                          : MPEG Audio
Format version                           : Version 2
Format profile                           : Layer 3
Format settings                          : Joint stereo / MS Stereo
Mode                                     : Joint stereo
Mode extension                           : MS Stereo
Internet media type                      : audio/mpeg
Codec                                    : MPA2L3
Codec                                    : MPEG-2 Audio layer 3
Codec profile                            : Joint stereo
Duration                                 : 240084
Duration                                 : 4mn 0s
Duration                                 : 4mn 0s 84ms
Duration                                 : 4mn 0s
Duration                                 : 00:04:00.084
Bit rate mode                            : CBR
Bit rate mode                            : Constant
Bit rate                                 : 40000
Bit rate                                 : 40.0 Kbps
Channel(s)                               : 2
Channel(s)                               : 2 channels
Sampling rate                            : 16000
Sampling rate                            : 16.0 KHz
Samples count                            : 3841344
Frame count                              : 6669
Compression mode                         : Lossy
Compression mode                         : Lossy
Stream size                              : 1200420
Stream size                              : 1.14 MiB (100%)
Stream size                              : 1 MiB
Stream size                              : 1.1 MiB
Stream size                              : 1.14 MiB
Stream size                              : 1.145 MiB
Stream size                              : 1.14 MiB (100%)
Proportion of this stream                : 0.99974
Writing library                          : LAME3.99r
Writing library                          : LAME3.99r
Encoding settings                        : -m j -V 4 -q 3 -lowpass 7 -b 40

